<svg width="183" height="63" viewBox="0 0 183 63" fill="none" xmlns="http://www.w3.org/2000/svg">
<path d="M8.512 38V20C8.512 12.992 12.184 10.688 16.216 10.688H22.576C22.576 10.76 22.576 10.832 22.552 10.904C22.552 11.072 22.528 11.216 22.504 11.48C22.432 12.32 22.336 13.616 22.264 14.696C22.192 15.344 22.144 16.016 22.096 16.688H21.784C21.784 13.04 20.584 11.72 18.88 11.72H18.688C13.576 11.72 11.488 12.464 11.488 20.216V33.2C11.488 35.624 12.736 36.608 14.224 36.608C16.936 36.608 20.512 33.224 22.096 31.328C22.216 31.448 22.336 31.592 22.432 31.712C22.504 31.784 22.552 31.832 22.6 31.904C19.528 35.552 15.688 38.12 10.504 38.12C9.856 38.12 9.184 38.072 8.512 38ZM28.0924 16.616L27.9484 16.52C29.8924 15.776 32.5084 14.312 33.7804 11.912L35.0524 14.816C33.7084 15.584 29.8204 16.4 28.0924 16.616ZM29.3164 18.104C34.0684 18.224 37.6684 20.936 37.9804 26.12V34.256C37.9804 35.96 38.1484 37.808 39.3004 38C36.2284 38 35.0044 36.344 35.0044 33.872V28.328C34.1404 32.048 32.2204 37.832 28.4284 38.408C28.1644 38.456 27.9244 38.48 27.6844 38.48C27.2284 38.48 26.5084 38.432 25.8364 37.952C25.1404 37.472 24.6604 36.656 24.6604 35.408V25.928C25.4284 25.808 26.1484 25.736 26.8444 25.736C30.0124 25.736 32.4844 27.056 34.0924 29.672C34.5724 27.944 34.9564 26 35.0284 24.2C35.0284 21.032 33.5404 19.376 31.1404 19.208C30.9964 19.208 30.8524 19.184 30.7084 19.184C28.6684 19.184 26.9884 20.072 25.4524 22.832L23.7004 19.208C25.1404 18.608 26.7724 18.104 28.8844 18.104C29.0284 18.104 29.1724 18.104 29.3164 18.104ZM27.6604 27.176V35.12C27.6604 35.936 27.8044 36.464 28.1164 36.704C28.4044 36.92 28.6924 37.04 29.0044 37.04C29.1004 37.04 29.1964 37.04 29.2924 37.016C31.1884 36.704 32.8684 33.752 33.9004 30.368C32.3644 28.256 30.3484 27.152 28.1404 27.152C27.9724 27.152 27.8284 27.176 27.6604 27.176ZM44.7074 17.84V30.512C46.8914 23.408 49.1714 18.056 53.8514 18.056C54.2354 18.056 54.6434 18.08 55.0514 18.152V30.344C57.2354 23.312 59.4674 18.032 64.1714 18.032C64.5314 18.032 64.9154 18.08 65.3714 18.152V35.168C65.3714 36.176 65.7554 37.808 66.6674 38C63.5954 38 62.4434 36.392 62.3714 33.992V19.568C58.7954 19.568 56.5874 27.992 55.0514 31.736V35.384C55.1234 37.184 55.7234 37.832 56.3714 38H50.7554C51.4274 37.832 52.0754 37.016 52.0754 35.168V19.568C48.4034 19.568 46.2434 28.184 44.7074 31.856V35.072C44.7074 37.088 45.3554 37.856 46.0274 38H40.4114C41.3714 37.808 41.7074 36.368 41.7074 35.36V21.608C41.7074 20.456 41.4434 18.752 40.4114 18.488C42.6434 18.488 44.5874 17.84 44.7074 17.84ZM91.7071 38H77.0911C77.7391 37.832 78.4111 36.848 78.4111 35.12V13.928C78.4111 11.816 77.7391 10.856 77.0911 10.688H82.7071C82.0351 10.856 81.3871 12.08 81.3871 13.904V37.088H87.6271C90.6511 37.088 91.4671 36.584 91.9711 32H92.2831L91.7071 38ZM97.6761 17.84V36.92C101.324 36.92 103.772 28.136 105.044 24.632V21.416C105.044 19.4 104.396 18.656 103.724 18.488C104.876 18.488 105.932 18.32 106.724 18.152C107.18 18.08 107.612 17.96 108.02 17.84V34.88C108.02 36.032 108.308 37.736 109.34 38H109.1C106.82 37.88 105.044 36.464 105.044 33.656V26C103.868 29.84 102.692 33.08 101.132 35.264C99.5721 37.472 97.7001 38.384 95.5641 38.384C95.2761 38.384 94.9881 38.36 94.7001 38.336V21.32C94.7001 20.312 94.2681 18.68 93.3801 18.488C95.6121 18.488 97.6041 17.84 97.6761 17.84ZM110.443 18.488H115.867C115.699 18.608 115.603 18.824 115.603 19.136C115.603 19.352 115.579 19.856 116.347 21.272C116.827 22.136 117.283 22.952 117.739 23.744C118.507 25.088 119.347 26.624 119.779 27.44C119.971 26.12 120.331 24.128 121.099 22.04C121.459 21.008 121.939 19.976 122.491 18.944C123.595 16.928 125.179 15.272 127.027 14.432C127.963 14.024 128.947 13.832 130.003 13.832C130.219 13.832 130.435 13.832 130.675 13.856C132.859 14.048 134.659 15.344 136.171 16.568C137.203 17.408 138.235 18.08 139.027 18.344C139.411 18.488 139.771 18.56 140.083 18.56C140.299 18.56 140.491 18.536 140.707 18.488C142.315 18.176 143.539 16.76 143.539 15.032C143.539 13.088 141.955 11.432 140.035 11.432H132.907L134.083 5.432H134.395C134.275 6.32 134.227 7.064 134.227 7.688C134.227 7.904 134.227 8.24 134.275 8.672C134.299 9.128 134.467 9.536 134.755 9.896C135.331 10.664 136.363 10.808 137.875 10.808H140.035C142.339 10.808 144.259 12.728 144.259 15.032C144.259 16.952 142.987 18.512 141.259 19.064C140.899 19.184 140.491 19.256 140.083 19.256C136.891 19.256 134.491 14.96 130.603 14.576C130.339 14.552 130.075 14.528 129.811 14.528C127.987 14.528 126.211 15.368 124.723 17C123.979 17.816 123.331 18.752 122.803 19.808C121.195 22.952 120.451 26.552 120.355 28.544L124.531 36.08C124.915 36.728 125.707 37.88 126.451 38H120.787C121.219 37.736 121.243 37.088 121.243 37.04C121.243 36.608 121.099 36.008 120.643 35.216L117.523 29.6C116.611 30.992 115.243 33.08 114.427 34.832C113.851 36.032 113.827 36.584 113.827 36.848C113.827 37.4 114.019 38 115.075 38H111.211C112.171 36.896 114.691 33.128 117.331 29.216L112.771 21.008C112.195 19.976 111.355 18.68 110.443 18.488ZM131.918 17.84V36.92C135.566 36.92 138.014 28.136 139.286 24.632V21.416C139.286 19.4 138.638 18.656 137.966 18.488C139.118 18.488 140.174 18.32 140.966 18.152C141.422 18.08 141.854 17.96 142.262 17.84V34.88C142.262 36.032 142.55 37.736 143.582 38H143.342C141.062 37.88 139.286 36.464 139.286 33.656V26C138.11 29.84 136.934 33.08 135.374 35.264C133.814 37.472 131.942 38.384 129.806 38.384C129.518 38.384 129.23 38.36 128.942 38.336V21.32C128.942 20.312 128.51 18.68 127.622 18.488C129.854 18.488 131.846 17.84 131.918 17.84ZM144.685 18.488C146.917 18.488 148.861 17.84 148.981 17.84V30.512C150.445 22.352 152.293 18.344 156.733 18.344C157.213 18.344 157.717 18.392 158.269 18.488V20.648C158.269 21.656 158.701 23.288 159.589 23.48C156.517 23.48 155.365 22.016 155.293 19.616V19.568C151.405 19.568 149.845 28.112 148.981 32.624V35.072C148.981 37.088 149.629 37.856 150.301 38H144.685C145.645 37.808 145.981 36.368 145.981 35.36V21.608C145.981 20.456 145.717 18.752 144.685 18.488ZM160.458 18.512C162.69 18.512 164.682 17.864 164.754 17.864V37.184C164.97 37.304 165.21 37.376 165.426 37.376C167.97 37.376 170.946 29.984 172.122 26.096V21.344C172.122 20.312 171.714 18.704 170.802 18.512C173.01 18.512 175.002 17.864 175.098 17.864V39.872C175.098 44.96 171.09 48.032 166.746 48.152C166.554 48.152 166.362 48.152 166.146 48.152C164.706 48.152 163.218 48.032 161.49 47.288L163.242 43.664C163.818 45.176 165.042 47.408 167.658 47.408C171.33 47.408 172.002 42.68 172.122 39.872V27.968C169.818 34.4 167.682 38.72 163.434 38.72C162.93 38.72 162.378 38.696 161.778 38.528V21.344C161.778 20.312 161.37 18.704 160.458 18.512Z" fill="#B4A3FD"/>
<path d="M2.22707 56.374V55.36H4.33307C5.1564 55.36 5.77607 55.204 6.19207 54.892C6.60807 54.5713 6.81607 54.06 6.81607 53.358C6.81607 52.708 6.62107 52.2227 6.23107 51.902C5.84974 51.5727 5.2604 51.408 4.46307 51.408H2.22707V50.42H4.48907C5.0524 50.42 5.55074 50.485 5.98407 50.615C6.42607 50.745 6.79874 50.9357 7.10207 51.187C7.4054 51.4383 7.63507 51.7503 7.79107 52.123C7.95574 52.487 8.03807 52.9117 8.03807 53.397C8.03807 54.0383 7.89074 54.58 7.59607 55.022C7.3014 55.464 6.86807 55.802 6.29607 56.036C5.72407 56.2613 5.02207 56.374 4.19007 56.374H2.22707ZM1.59007 59V50.42H2.78607V59H1.59007ZM13.4216 59V50.42H16.4116C16.8449 50.42 17.2393 50.4547 17.5946 50.524C17.9586 50.5933 18.2793 50.6973 18.5566 50.836C18.8426 50.9747 19.0809 51.1437 19.2716 51.343C19.4709 51.5423 19.6183 51.7763 19.7136 52.045C19.8176 52.305 19.8696 52.5953 19.8696 52.916C19.8696 53.2193 19.8219 53.4967 19.7266 53.748C19.6399 53.9993 19.5056 54.2203 19.3236 54.411C19.1416 54.6017 18.9163 54.7577 18.6476 54.879C18.3789 54.9917 18.0669 55.0697 17.7116 55.113V55.282C18.0236 55.3167 18.2966 55.399 18.5306 55.529C18.7646 55.659 18.9639 55.8497 19.1286 56.101C19.2933 56.3437 19.4363 56.6687 19.5576 57.076L20.1036 59H18.8166L18.3746 57.245C18.2966 56.8897 18.1623 56.6037 17.9716 56.387C17.7896 56.1703 17.5599 56.01 17.2826 55.906C17.0053 55.802 16.6803 55.75 16.3076 55.75H14.6176V59H13.4216ZM14.6176 54.775H16.3076C17.0789 54.775 17.6596 54.6363 18.0496 54.359C18.4483 54.0817 18.6476 53.657 18.6476 53.085C18.6476 52.513 18.4569 52.0927 18.0756 51.824C17.7029 51.5467 17.1223 51.408 16.3336 51.408H14.6176V54.775ZM25.6467 59V50.42H26.8427V59H25.6467ZM26.2577 59V57.973H31.6657V59H26.2577ZM26.2577 55.1V54.138H31.0547V55.1H26.2577ZM26.2577 51.434V50.42H31.6527V51.434H26.2577ZM37.0592 59V50.42H38.9053L41.7523 57.752H41.8173L44.6513 50.42H46.4323V59H45.3013L45.3792 51.629H45.2753L42.3243 59H41.1543L38.2293 51.616H38.1253L38.2032 59H37.0592ZM52.4328 59V50.42H53.6418V59H52.4328ZM63.1662 59.169C62.6982 59.169 62.2735 59.117 61.8922 59.013C61.5109 58.9177 61.1772 58.7747 60.8912 58.584C60.6052 58.3847 60.3625 58.1463 60.1632 57.869C59.9725 57.5917 59.8252 57.2753 59.7212 56.92C59.6259 56.5647 59.5782 56.1703 59.5782 55.737V50.42H60.7742V55.698C60.7742 56.218 60.8652 56.6557 61.0472 57.011C61.2292 57.3577 61.4979 57.622 61.8532 57.804C62.2085 57.986 62.6462 58.077 63.1662 58.077C63.7035 58.077 64.1455 57.9903 64.4922 57.817C64.8475 57.635 65.1119 57.3663 65.2852 57.011C65.4672 56.6557 65.5582 56.218 65.5582 55.698V50.42H66.7412V55.737C66.7412 56.829 66.4379 57.674 65.8312 58.272C65.2245 58.87 64.3362 59.169 63.1662 59.169ZM72.6935 59V50.42H74.5395L77.3865 57.752H77.4515L80.2855 50.42H82.0665V59H80.9355L81.0135 51.629H80.9095L77.9585 59H76.7885L73.8635 51.616H73.7595L73.8375 59H72.6935ZM98.7521 59.169C98.1367 59.169 97.5821 59.0737 97.0881 58.883C96.6027 58.6923 96.1911 58.4107 95.8531 58.038C95.5151 57.6653 95.2551 57.2103 95.0731 56.673C94.8997 56.127 94.8131 55.5073 94.8131 54.814C94.8131 54.112 94.9041 53.4837 95.0861 52.929C95.2681 52.3657 95.5281 51.8847 95.8661 51.486C96.2041 51.0873 96.6114 50.784 97.0881 50.576C97.5647 50.3593 98.0977 50.251 98.6871 50.251C99.1377 50.251 99.5537 50.316 99.9351 50.446C100.316 50.5673 100.646 50.7493 100.923 50.992C101.209 51.226 101.43 51.512 101.586 51.85C101.742 52.188 101.824 52.565 101.833 52.981L100.702 53.267C100.711 52.825 100.62 52.461 100.429 52.175C100.238 51.8803 99.9871 51.6593 99.6751 51.512C99.3631 51.3647 99.0251 51.291 98.6611 51.291C98.3231 51.291 97.9937 51.3603 97.6731 51.499C97.3611 51.629 97.0837 51.837 96.8411 52.123C96.5984 52.4003 96.4034 52.76 96.2561 53.202C96.1174 53.6353 96.0481 54.1597 96.0481 54.775C96.0481 55.5637 96.1607 56.2007 96.3861 56.686C96.6201 57.1713 96.9451 57.531 97.3611 57.765C97.7771 57.9903 98.2581 58.103 98.8041 58.103C99.3327 58.103 99.7574 58.0077 100.078 57.817C100.399 57.6177 100.637 57.3447 100.793 56.998C100.949 56.6427 101.04 56.2353 101.066 55.776L102.132 55.971C102.123 56.4043 102.054 56.816 101.924 57.206C101.794 57.596 101.595 57.9383 101.326 58.233C101.057 58.5277 100.711 58.7573 100.286 58.922C99.8614 59.0867 99.3501 59.169 98.7521 59.169ZM107.553 59V50.42H108.749V59H107.553ZM107.943 59V57.96H112.753V59H107.943ZM121.156 59.169C120.532 59.169 119.981 59.065 119.505 58.857C119.037 58.649 118.638 58.35 118.309 57.96C117.988 57.57 117.745 57.1063 117.581 56.569C117.416 56.023 117.334 55.412 117.334 54.736C117.334 53.748 117.498 52.9247 117.828 52.266C118.157 51.5987 118.612 51.096 119.193 50.758C119.773 50.42 120.432 50.251 121.169 50.251C121.749 50.251 122.274 50.3507 122.742 50.55C123.21 50.7493 123.608 51.044 123.938 51.434C124.276 51.824 124.536 52.3007 124.718 52.864C124.9 53.4187 124.991 54.0513 124.991 54.762C124.991 55.4293 124.904 56.036 124.731 56.582C124.566 57.1193 124.319 57.583 123.99 57.973C123.669 58.3543 123.27 58.649 122.794 58.857C122.326 59.065 121.78 59.169 121.156 59.169ZM121.169 58.142C121.723 58.142 122.191 58.012 122.573 57.752C122.963 57.4833 123.257 57.102 123.457 56.608C123.665 56.1053 123.769 55.4987 123.769 54.788C123.769 54.0513 123.665 53.4273 123.457 52.916C123.249 52.396 122.95 51.9973 122.56 51.72C122.17 51.4427 121.697 51.304 121.143 51.304C120.614 51.304 120.155 51.4383 119.765 51.707C119.375 51.9757 119.076 52.3657 118.868 52.877C118.66 53.3883 118.556 54.0167 118.556 54.762C118.556 55.2993 118.612 55.7803 118.725 56.205C118.846 56.621 119.015 56.9763 119.232 57.271C119.457 57.557 119.73 57.7737 120.051 57.921C120.38 58.0683 120.753 58.142 121.169 58.142ZM132.16 59V50.42H133.356V59H132.16ZM129.547 51.46V50.42H135.969V51.46H129.547ZM146.876 59V50.42H148.072V59H146.876ZM141.182 59V50.42H142.378V59H141.182ZM141.78 55.126V54.099H147.357V55.126H141.78ZM154.067 59V50.42H155.276V59H154.067ZM161.277 59V50.42H162.863L167.387 57.427H167.491L167.4 50.42H168.557V59H167.114L162.473 51.837H162.356L162.447 59H161.277ZM177.897 59.169C177.195 59.169 176.566 59.0087 176.012 58.688C175.466 58.3587 175.037 57.869 174.725 57.219C174.413 56.569 174.257 55.7457 174.257 54.749C174.257 54.047 174.343 53.423 174.517 52.877C174.69 52.3223 174.941 51.85 175.271 51.46C175.609 51.07 176.02 50.771 176.506 50.563C176.991 50.355 177.554 50.251 178.196 50.251C178.672 50.251 179.101 50.3117 179.483 50.433C179.873 50.5543 180.211 50.7277 180.497 50.953C180.783 51.1783 181.012 51.4557 181.186 51.785C181.368 52.1143 181.48 52.487 181.524 52.903L180.38 53.228C180.345 52.76 180.219 52.3873 180.003 52.11C179.786 51.824 179.517 51.616 179.197 51.486C178.876 51.356 178.534 51.291 178.17 51.291C177.641 51.291 177.177 51.408 176.779 51.642C176.38 51.876 176.068 52.2487 175.843 52.76C175.617 53.2627 175.505 53.917 175.505 54.723C175.505 55.3557 175.574 55.8887 175.713 56.322C175.851 56.7553 176.038 57.1063 176.272 57.375C176.506 57.635 176.779 57.8257 177.091 57.947C177.411 58.0597 177.749 58.116 178.105 58.116C178.564 58.116 178.958 58.0293 179.288 57.856C179.617 57.6827 179.881 57.4227 180.081 57.076C180.289 56.7207 180.419 56.2743 180.471 55.737H178.508V54.788H181.654V56.075V59H180.679L180.926 56.66H180.731C180.618 57.2233 180.44 57.6913 180.198 58.064C179.964 58.428 179.656 58.7053 179.275 58.896C178.902 59.078 178.443 59.169 177.897 59.169Z" fill="#B4A3FD"/>
</svg>
